<svg xmlns="http://www.w3.org/2000/svg" viewBox="0 0 600 220" width="100%" height="220"><defs>  <linearGradient id="grid-grad" x1="0%" y1="0%" x2="0%" y2="100%">    <stop offset="0%" stop-color="#3b82f6" stop-opacity="0.25" />    <stop offset="100%" stop-color="#3b82f6" stop-opacity="0.0" />  </linearGradient></defs>
  <line x1="55" y1="175.0" x2="570" y2="175.0" stroke="#e5e7eb" stroke-dasharray="4,4" stroke-width="1" />
  <text x="45" y="179.0" font-family="system-ui, -apple-system, sans-serif" font-size="10" fill="#6b7280" text-anchor="end">0%</text>
  <line x1="55" y1="146.0" x2="570" y2="146.0" stroke="#e5e7eb" stroke-dasharray="4,4" stroke-width="1" />
  <text x="45" y="150.0" font-family="system-ui, -apple-system, sans-serif" font-size="10" fill="#6b7280" text-anchor="end">20%</text>
  <line x1="55" y1="117.0" x2="570" y2="117.0" stroke="#e5e7eb" stroke-dasharray="4,4" stroke-width="1" />
  <text x="45" y="121.0" font-family="system-ui, -apple-system, sans-serif" font-size="10" fill="#6b7280" text-anchor="end">40%</text>
  <line x1="55" y1="88.0" x2="570" y2="88.0" stroke="#e5e7eb" stroke-dasharray="4,4" stroke-width="1" />
  <text x="45" y="92.0" font-family="system-ui, -apple-system, sans-serif" font-size="10" fill="#6b7280" text-anchor="end">60%</text>
  <line x1="55" y1="59.0" x2="570" y2="59.0" stroke="#e5e7eb" stroke-dasharray="4,4" stroke-width="1" />
  <text x="45" y="63.0" font-family="system-ui, -apple-system, sans-serif" font-size="10" fill="#6b7280" text-anchor="end">80%</text>
  <line x1="55" y1="30.0" x2="570" y2="30.0" stroke="#e5e7eb" stroke-dasharray="4,4" stroke-width="1" />
  <text x="45" y="34.0" font-family="system-ui, -apple-system, sans-serif" font-size="10" fill="#6b7280" text-anchor="end">100%</text>
  <polygon points="55.0,175 55.0,132.60233918128654 128.57142857142856,131.75438596491227 202.14285714285714,132.60233918128654 275.7142857142857,130.906432748538 349.2857142857143,120.73099415204679 422.85714285714283,121.57894736842105 496.42857142857144,119.03508771929825 570.0,104.61988304093569 570.0,175" fill="url(#grid-grad)" />
  <polyline points="55.0,132.60233918128654 128.57142857142856,131.75438596491227 202.14285714285714,132.60233918128654 275.7142857142857,130.906432748538 349.2857142857143,120.73099415204679 422.85714285714283,121.57894736842105 496.42857142857144,119.03508771929825 570.0,104.61988304093569" fill="none" stroke="#3b82f6" stroke-width="2.5" stroke-linecap="round" stroke-linejoin="round" />
  <circle cx="55.0" cy="132.60233918128654" r="4" fill="#ffffff" stroke="#3b82f6" stroke-width="2" />
  <text x="55.0" y="122.60233918128654" font-family="system-ui, -apple-system, sans-serif" font-size="9" font-weight="bold" fill="#2563eb" text-anchor="middle">29.2%</text>
  <text x="55.0" y="190" font-family="system-ui, -apple-system, sans-serif" font-size="9" fill="#6b7280" text-anchor="end" transform="rotate(-25, 55.0, 190)">07-13 10:45</text>
  <circle cx="128.57142857142856" cy="131.75438596491227" r="4" fill="#ffffff" stroke="#3b82f6" stroke-width="2" />
  <text x="128.57142857142856" y="190" font-family="system-ui, -apple-system, sans-serif" font-size="9" fill="#6b7280" text-anchor="end" transform="rotate(-25, 128.57142857142856, 190)">07-13 10:49</text>
  <circle cx="202.14285714285714" cy="132.60233918128654" r="4" fill="#ffffff" stroke="#3b82f6" stroke-width="2" />
  <text x="202.14285714285714" y="122.60233918128654" font-family="system-ui, -apple-system, sans-serif" font-size="9" font-weight="bold" fill="#2563eb" text-anchor="middle">29.2%</text>
  <text x="202.14285714285714" y="190" font-family="system-ui, -apple-system, sans-serif" font-size="9" fill="#6b7280" text-anchor="end" transform="rotate(-25, 202.14285714285714, 190)">07-13 10:52</text>
  <circle cx="275.7142857142857" cy="130.906432748538" r="4" fill="#ffffff" stroke="#3b82f6" stroke-width="2" />
  <text x="275.7142857142857" y="190" font-family="system-ui, -apple-system, sans-serif" font-size="9" fill="#6b7280" text-anchor="end" transform="rotate(-25, 275.7142857142857, 190)">07-13 11:03</text>
  <circle cx="349.2857142857143" cy="120.73099415204679" r="4" fill="#ffffff" stroke="#3b82f6" stroke-width="2" />
  <text x="349.2857142857143" y="110.73099415204679" font-family="system-ui, -apple-system, sans-serif" font-size="9" font-weight="bold" fill="#2563eb" text-anchor="middle">37.4%</text>
  <text x="349.2857142857143" y="190" font-family="system-ui, -apple-system, sans-serif" font-size="9" fill="#6b7280" text-anchor="end" transform="rotate(-25, 349.2857142857143, 190)">07-13 11:05</text>
  <circle cx="422.85714285714283" cy="121.57894736842105" r="4" fill="#ffffff" stroke="#3b82f6" stroke-width="2" />
  <text x="422.85714285714283" y="190" font-family="system-ui, -apple-system, sans-serif" font-size="9" fill="#6b7280" text-anchor="end" transform="rotate(-25, 422.85714285714283, 190)">07-13 03:24</text>
  <circle cx="496.42857142857144" cy="119.03508771929825" r="4" fill="#ffffff" stroke="#3b82f6" stroke-width="2" />
  <text x="496.42857142857144" y="109.03508771929825" font-family="system-ui, -apple-system, sans-serif" font-size="9" font-weight="bold" fill="#2563eb" text-anchor="middle">38.6%</text>
  <text x="496.42857142857144" y="190" font-family="system-ui, -apple-system, sans-serif" font-size="9" fill="#6b7280" text-anchor="end" transform="rotate(-25, 496.42857142857144, 190)">07-13 03:29</text>
  <circle cx="570.0" cy="104.61988304093569" r="4" fill="#ffffff" stroke="#3b82f6" stroke-width="2" />
  <text x="570.0" y="94.61988304093569" font-family="system-ui, -apple-system, sans-serif" font-size="9" font-weight="bold" fill="#2563eb" text-anchor="middle">48.5%</text>
  <text x="570.0" y="190" font-family="system-ui, -apple-system, sans-serif" font-size="9" fill="#6b7280" text-anchor="end" transform="rotate(-25, 570.0, 190)">07-13 03:47</text>
</svg>